<svg width="1439" height="174" viewBox="0 0 1439 174" fill="none" xmlns="http://www.w3.org/2000/svg">
            <g clip-path="url(#clip0_261_231)">
            <path d="M160.953 0.0964355H1.18785C0.531817 0.0964355 0 0.635905 0 1.30138V41.3657C0 42.0311 0.531817 42.5706 1.18785 42.5706H160.953C161.609 42.5706 162.141 42.0311 162.141 41.3657V1.30138C162.141 0.635905 161.609 0.0964355 160.953 0.0964355Z" fill="#2438CE"/>
            <path d="M321.164 12.1174H159.023V30.5496H321.164V12.1174Z" fill="#2438CE"/>
            <path d="M478.225 0.0964355H319.227C318.575 0.0964355 318.045 0.635905 318.045 1.30138V41.3657C318.045 42.0311 318.575 42.5706 319.227 42.5706H478.225C478.877 42.5706 479.407 42.0311 479.407 41.3657V1.30138C479.407 0.635905 478.877 0.0964355 478.225 0.0964355Z" fill="#2438CE"/>
            <path d="M638.43 12.1174H476.289V30.5496H638.43V12.1174Z" fill="#2438CE"/>
            <path d="M796.267 0.0964355H636.5C635.843 0.0964355 635.312 0.635905 635.312 1.30138V41.3657C635.312 42.0311 635.843 42.5706 636.5 42.5706H796.267C796.922 42.5706 797.452 42.0311 797.452 41.3657V1.30138C797.452 0.635905 796.922 0.0964355 796.267 0.0964355Z" fill="#2438CE"/>
            <path d="M802.504 0.0964355H642.736C642.079 0.0964355 641.548 0.635905 641.548 1.30138V41.3657C641.548 42.0311 642.079 42.5706 642.736 42.5706H802.504C803.158 42.5706 803.688 42.0311 803.688 41.3657V1.30138C803.688 0.635905 803.158 0.0964355 802.504 0.0964355Z" fill="#2438CE"/>
            <path d="M962.711 12.1174H800.57V30.5496H962.711V12.1174Z" fill="#2438CE"/>
            <path d="M1119.77 0.0964355H960.778C960.123 0.0964355 959.593 0.635905 959.593 1.30138V41.3657C959.593 42.0311 960.123 42.5706 960.778 42.5706H1119.77C1120.42 42.5706 1120.95 42.0311 1120.95 41.3657V1.30138C1120.95 0.635905 1120.42 0.0964355 1119.77 0.0964355Z" fill="#2438CE"/>
            <path d="M1279.98 12.1174H1117.84V30.5496H1279.98V12.1174Z" fill="#2438CE"/>
            <path d="M1437.82 0.0964355H1278.04C1277.39 0.0964355 1276.86 0.635905 1276.86 1.30138V41.3657C1276.86 42.0311 1277.39 42.5706 1278.04 42.5706H1437.82C1438.47 42.5706 1439 42.0311 1439 41.3657V1.30138C1439 0.635905 1438.47 0.0964355 1437.82 0.0964355Z" fill="#2438CE"/>
            <path d="M162.141 77.8322H0V96.2643H162.141V77.8322Z" fill="#2438CE"/>
            <path d="M319.976 65.8112H160.211C159.554 65.8112 159.023 66.3507 159.023 67.0161V107.08C159.023 107.746 159.554 108.285 160.211 108.285H319.976C320.632 108.285 321.164 107.746 321.164 107.08V67.0161C321.164 66.3507 320.632 65.8112 319.976 65.8112Z" fill="#2438CE"/>
            <path d="M479.407 77.8322H318.045V96.2643H479.407V77.8322Z" fill="#2438CE"/>
            <path d="M637.242 65.8112H477.477C476.82 65.8112 476.289 66.3507 476.289 67.0161V107.08C476.289 107.746 476.82 108.285 477.477 108.285H637.242C637.898 108.285 638.43 107.746 638.43 107.08V67.0161C638.43 66.3507 637.898 65.8112 637.242 65.8112Z" fill="#2438CE"/>
            <path d="M797.452 77.8322H635.312V96.2643H797.452V77.8322Z" fill="#2438CE"/>
            <path d="M803.688 77.8322H641.548V96.2643H803.688V77.8322Z" fill="#2438CE"/>
            <path d="M961.526 65.8112H801.755C801.101 65.8112 800.57 66.3507 800.57 67.0161V107.08C800.57 107.746 801.101 108.285 801.755 108.285H961.526C962.181 108.285 962.711 107.746 962.711 107.08V67.0161C962.711 66.3507 962.181 65.8112 961.526 65.8112Z" fill="#2438CE"/>
            <path d="M1120.95 77.8322H959.593V96.2643H1120.95V77.8322Z" fill="#2438CE"/>
            <path d="M1278.79 65.8112H1119.02C1118.37 65.8112 1117.84 66.3507 1117.84 67.0161V107.08C1117.84 107.746 1118.37 108.285 1119.02 108.285H1278.79C1279.45 108.285 1279.98 107.746 1279.98 107.08V67.0161C1279.98 66.3507 1279.45 65.8112 1278.79 65.8112Z" fill="#2438CE"/>
            <path d="M1439 77.8322H1276.86V96.2643H1439V77.8322Z" fill="#2438CE"/>
            <path d="M160.953 131.526H1.18785C0.531817 131.526 0 132.065 0 132.731V172.795C0 173.461 0.531817 174 1.18785 174H160.953C161.609 174 162.141 173.461 162.141 172.795V132.731C162.141 132.065 161.609 131.526 160.953 131.526Z" fill="#2438CE"/>
            <path d="M321.164 143.547H159.023V161.979H321.164V143.547Z" fill="#2438CE"/>
            <path d="M478.225 131.526H319.227C318.575 131.526 318.045 132.065 318.045 132.731V172.795C318.045 173.461 318.575 174 319.227 174H478.225C478.877 174 479.407 173.461 479.407 172.795V132.731C479.407 132.065 478.877 131.526 478.225 131.526Z" fill="#2438CE"/>
            <path d="M638.43 143.547H476.289V161.979H638.43V143.547Z" fill="#2438CE"/>
            <path d="M796.267 131.526H636.5C635.843 131.526 635.312 132.065 635.312 132.731V172.795C635.312 173.461 635.843 174 636.5 174H796.267C796.922 174 797.452 173.461 797.452 172.795V132.731C797.452 132.065 796.922 131.526 796.267 131.526Z" fill="#2438CE"/>
            <path d="M802.504 131.526H642.736C642.079 131.526 641.548 132.065 641.548 132.731V172.795C641.548 173.461 642.079 174 642.736 174H802.504C803.158 174 803.688 173.461 803.688 172.795V132.731C803.688 132.065 803.158 131.526 802.504 131.526Z" fill="#2438CE"/>
            <path d="M962.711 143.547H800.57V161.979H962.711V143.547Z" fill="#2438CE"/>
            <path d="M1119.77 131.526H960.778C960.123 131.526 959.593 132.065 959.593 132.731V172.795C959.593 173.461 960.123 174 960.778 174H1119.77C1120.42 174 1120.95 173.461 1120.95 172.795V132.731C1120.95 132.065 1120.42 131.526 1119.77 131.526Z" fill="#2438CE"/>
            <path d="M1279.98 143.547H1117.84V161.979H1279.98V143.547Z" fill="#2438CE"/>
            <path d="M1437.82 131.526H1278.04C1277.39 131.526 1276.86 132.065 1276.86 132.731V172.795C1276.86 173.461 1277.39 174 1278.04 174H1437.82C1438.47 174 1439 173.461 1439 172.795V132.731C1439 132.065 1438.47 131.526 1437.82 131.526Z" fill="#2438CE"/>
            </g>
            <defs>
            <clipPath id="clip0_261_231">
            <rect width="1439" height="173.904" fill="white" transform="translate(0 0.0964355)"/>
            </clipPath>
            </defs>
            </svg> 
